<svg xmlns="http://www.w3.org/2000/svg" viewBox="0 0 160 40" role="img" aria-label="KairoDex">
  <g fill="none">
    <!-- Icon -->
    <g transform="translate(4,3)">
      <!-- bars -->
      <rect x="0" y="18" width="8" height="16" rx="2" fill="#FF6F3C"/>
      <rect x="12" y="12" width="8" height="22" rx="2" fill="#FF6F3C" opacity=".88"/>
      <rect x="24" y="6" width="8" height="28" rx="2" fill="#FF6F3C" opacity=".76"/>
      <!-- house with arrow roof -->
      <path d="M4 14 L20 2 L36 14 V30 a2 2 0 0 1 -2 2 H6 a2 2 0 0 1 -2 -2 Z" fill="#FF6F3C"/>
      <rect x="16" y="16" width="5" height="5" rx="1" fill="#fff"/>
      <rect x="16" y="22.5" width="5" height="5" rx="1" fill="#fff"/>
    </g>
    <!-- Wordmark -->
    <g transform="translate(56,7)" fill="#2D2D2D">
      <path d="M0 21V0h5.5l7.4 12.3L20.3 0H26v21h-5.4V9.6l-7.7 12.1L5.1 9.5V21H0z"/>
      <text x="30" y="17" font-family="Inter,system-ui,Arial" font-size="18" font-weight="800" letter-spacing=".2">KairoDex</text>
    </g>
  </g>
</svg>